<svg width="73" height="72" viewBox="0 0 73 72" fill="none" xmlns="http://www.w3.org/2000/svg">
<path d="M36.6 48.7V27.2L31.7 30C23 35 17.6 44.3 17.6 54.4H14L14 29.8C14 21.8 18.6 14.4 25.9 10.9L36.7 5.70001L36.7 27.2L41.6 24.4C50.3 19.4 55.7 10.1 55.7 3.05176e-05H59.3V24.6C59.3 32.6 54.7 40 47.4 43.5L36.6 48.7Z" fill="url(#paint0_linear_401_8)"/>
<path d="M1.35144 68V56.8H3.49544L8.26344 64.704H7.12744L11.8154 56.8H13.9434L13.9754 68H11.5434L11.5274 60.528H11.9754L8.23144 66.816H7.06344L3.23944 60.528H3.78344V68H1.35144ZM20.5527 68.128C19.6354 68.128 18.8194 67.936 18.1047 67.552C17.4007 67.168 16.8407 66.6453 16.4247 65.984C16.0194 65.312 15.8167 64.5493 15.8167 63.696C15.8167 62.832 16.0194 62.0693 16.4247 61.408C16.8407 60.736 17.4007 60.2133 18.1047 59.84C18.8194 59.456 19.6354 59.264 20.5527 59.264C21.4594 59.264 22.27 59.456 22.9847 59.84C23.6994 60.2133 24.2594 60.7307 24.6647 61.392C25.07 62.0533 25.2727 62.8213 25.2727 63.696C25.2727 64.5493 25.07 65.312 24.6647 65.984C24.2594 66.6453 23.6994 67.168 22.9847 67.552C22.27 67.936 21.4594 68.128 20.5527 68.128ZM20.5527 66.08C20.9687 66.08 21.342 65.984 21.6727 65.792C22.0034 65.6 22.2647 65.328 22.4567 64.976C22.6487 64.6133 22.7447 64.1867 22.7447 63.696C22.7447 63.1947 22.6487 62.768 22.4567 62.416C22.2647 62.064 22.0034 61.792 21.6727 61.6C21.342 61.408 20.9687 61.312 20.5527 61.312C20.1367 61.312 19.7634 61.408 19.4327 61.6C19.102 61.792 18.8354 62.064 18.6327 62.416C18.4407 62.768 18.3447 63.1947 18.3447 63.696C18.3447 64.1867 18.4407 64.6133 18.6327 64.976C18.8354 65.328 19.102 65.6 19.4327 65.792C19.7634 65.984 20.1367 66.08 20.5527 66.08ZM31.1011 68.128C30.1731 68.128 29.3464 67.9413 28.6211 67.568C27.8957 67.184 27.3251 66.656 26.9091 65.984C26.5037 65.312 26.3011 64.5493 26.3011 63.696C26.3011 62.832 26.5037 62.0693 26.9091 61.408C27.3251 60.736 27.8957 60.2133 28.6211 59.84C29.3464 59.456 30.1731 59.264 31.1011 59.264C32.0077 59.264 32.7971 59.456 33.4691 59.84C34.1411 60.2133 34.6371 60.752 34.9571 61.456L33.0211 62.496C32.7971 62.0907 32.5144 61.792 32.1731 61.6C31.8424 61.408 31.4797 61.312 31.0851 61.312C30.6584 61.312 30.2744 61.408 29.9331 61.6C29.5917 61.792 29.3197 62.064 29.1171 62.416C28.9251 62.768 28.8291 63.1947 28.8291 63.696C28.8291 64.1973 28.9251 64.624 29.1171 64.976C29.3197 65.328 29.5917 65.6 29.9331 65.792C30.2744 65.984 30.6584 66.08 31.0851 66.08C31.4797 66.08 31.8424 65.9893 32.1731 65.808C32.5144 65.616 32.7971 65.312 33.0211 64.896L34.9571 65.952C34.6371 66.6453 34.1411 67.184 33.4691 67.568C32.7971 67.9413 32.0077 68.128 31.1011 68.128ZM38.4113 66.24L38.4753 63.2L42.4913 59.392H45.4673L41.6113 63.312L40.3153 64.368L38.4113 66.24ZM36.3473 68V56.128H38.8433V68H36.3473ZM42.7633 68L39.8513 64.384L41.4193 62.448L45.7873 68H42.7633ZM49.5246 68.128C48.7886 68.128 48.0792 68.0427 47.3966 67.872C46.7246 67.6907 46.1912 67.4667 45.7966 67.2L46.6286 65.408C47.0232 65.6533 47.4872 65.856 48.0206 66.016C48.5646 66.1653 49.0979 66.24 49.6206 66.24C50.1966 66.24 50.6019 66.1707 50.8366 66.032C51.0819 65.8933 51.2046 65.7013 51.2046 65.456C51.2046 65.2533 51.1086 65.104 50.9166 65.008C50.7352 64.9013 50.4899 64.8213 50.1806 64.768C49.8712 64.7147 49.5299 64.6613 49.1566 64.608C48.7939 64.5547 48.4259 64.4853 48.0526 64.4C47.6792 64.304 47.3379 64.1653 47.0286 63.984C46.7192 63.8027 46.4686 63.5573 46.2766 63.248C46.0952 62.9387 46.0046 62.5387 46.0046 62.048C46.0046 61.504 46.1592 61.024 46.4686 60.608C46.7886 60.192 47.2472 59.8667 47.8446 59.632C48.4419 59.3867 49.1566 59.264 49.9886 59.264C50.5752 59.264 51.1726 59.328 51.7806 59.456C52.3886 59.584 52.8952 59.7707 53.3006 60.016L52.4686 61.792C52.0526 61.5467 51.6312 61.3813 51.2046 61.296C50.7886 61.2 50.3832 61.152 49.9886 61.152C49.4339 61.152 49.0286 61.2267 48.7726 61.376C48.5166 61.5253 48.3886 61.7173 48.3886 61.952C48.3886 62.1653 48.4792 62.3253 48.6606 62.432C48.8526 62.5387 49.1032 62.624 49.4126 62.688C49.7219 62.752 50.0579 62.8107 50.4206 62.864C50.7939 62.9067 51.1672 62.976 51.5406 63.072C51.9139 63.168 52.2499 63.3067 52.5486 63.488C52.8579 63.6587 53.1086 63.8987 53.3006 64.208C53.4926 64.5067 53.5886 64.9013 53.5886 65.392C53.5886 65.9253 53.4286 66.4 53.1086 66.816C52.7886 67.2213 52.3246 67.5413 51.7166 67.776C51.1192 68.0107 50.3886 68.128 49.5246 68.128ZM56.0603 71.232C55.6123 71.232 55.1696 71.1627 54.7323 71.024C54.295 70.8853 53.9376 70.6933 53.6603 70.448L54.5723 68.672C54.7643 68.8427 54.983 68.976 55.2283 69.072C55.4843 69.168 55.735 69.216 55.9803 69.216C56.3323 69.216 56.6096 69.1307 56.8123 68.96C57.0256 68.8 57.2176 68.528 57.3883 68.144L57.8363 67.088L58.0283 66.816L61.1163 59.392H63.5163L59.6283 68.528C59.351 69.2213 59.031 69.7653 58.6683 70.16C58.3163 70.5547 57.9216 70.832 57.4843 70.992C57.0576 71.152 56.583 71.232 56.0603 71.232ZM57.5323 68.336L53.6923 59.392H56.2683L59.2443 66.592L57.5323 68.336ZM69.5336 68V66.32L69.3736 65.952V62.944C69.3736 62.4107 69.2082 61.9947 68.8776 61.696C68.5576 61.3973 68.0616 61.248 67.3896 61.248C66.9309 61.248 66.4776 61.3227 66.0296 61.472C65.5922 61.6107 65.2189 61.8027 64.9096 62.048L64.0136 60.304C64.4829 59.9733 65.0482 59.7173 65.7096 59.536C66.3709 59.3547 67.0429 59.264 67.7256 59.264C69.0376 59.264 70.0562 59.5733 70.7816 60.192C71.5069 60.8107 71.8696 61.776 71.8696 63.088V68H69.5336ZM66.9096 68.128C66.2376 68.128 65.6616 68.016 65.1816 67.792C64.7016 67.5573 64.3336 67.2427 64.0776 66.848C63.8216 66.4533 63.6936 66.0107 63.6936 65.52C63.6936 65.008 63.8162 64.56 64.0616 64.176C64.3176 63.792 64.7176 63.4933 65.2616 63.28C65.8056 63.056 66.5149 62.944 67.3896 62.944H69.6776V64.4H67.6616C67.0749 64.4 66.6696 64.496 66.4456 64.688C66.2322 64.88 66.1256 65.12 66.1256 65.408C66.1256 65.728 66.2482 65.984 66.4936 66.176C66.7496 66.3573 67.0962 66.448 67.5336 66.448C67.9496 66.448 68.3229 66.352 68.6536 66.16C68.9842 65.9573 69.2242 65.664 69.3736 65.28L69.7576 66.432C69.5762 66.9867 69.2456 67.408 68.7656 67.696C68.2856 67.984 67.6669 68.128 66.9096 68.128Z" fill="#D946EF"/>
<defs>
<linearGradient id="paint0_linear_401_8" x1="36.65" y1="3.05176e-05" x2="36.65" y2="54.4" gradientUnits="userSpaceOnUse">
<stop offset="0.330635" stop-color="#3B82F6"/>
<stop offset="1" stop-color="#D946EF"/>
</linearGradient>
</defs>
</svg>
